<svg xmlns="http://www.w3.org/2000/svg" viewBox="0 0 32 32" width="32" height="32">
  <rect width="32" height="32" rx="8" fill="#2F3E2E"/>
  <!-- Halo -->
  <ellipse cx="16" cy="7.5" rx="6.5" ry="2.2" fill="none" stroke="#DDA15E" stroke-width="1.6" stroke-linecap="round"/>
  <!-- Left Wing -->
  <path d="M16 16C12 11 7 9 2 9.5C3.5 12 6 14 9 15C6 15 3.5 16.5 4.5 18.5C7.5 20 11.5 18.5 16 16Z" fill="#DDA15E" opacity="0.95"/>
  <!-- Right Wing -->
  <path d="M16 16C20 11 25 9 30 9.5C28.5 12 26 14 23 15C26 15 28.5 16.5 27.5 18.5C24.5 20 20.5 18.5 16 16Z" fill="#DDA15E" opacity="0.95"/>
  <!-- 11:11 Subtext -->
  <text x="16" y="27" font-family="'Fraunces', Georgia, serif" font-weight="800" font-size="7.5" fill="#FFFFFF" text-anchor="middle" letter-spacing="0.5">11:11</text>
</svg>